<svg xmlns="http://www.w3.org/2000/svg" width="349.724" height="85.914" ><path d="M322.29 85.914q-6.37 0-11.816-2.98-5.343-3.082-8.631-8.631-3.185-5.651-3.185-13.152 0-7.398 2.774-12.946 2.877-5.548 8.117-8.631 5.24-3.082 12.33-3.082 4.11 0 7.706 1.438 3.596 1.438 6.062 3.596 2.466 2.055 3.288 4.11l.205-7.912h10.583v47.162h-10.48l-.205-8.323q-1.747 3.699-6.37 6.576-4.624 2.774-10.378 2.774zm1.849-9.247q5.857 0 9.864-4.007 4.007-4.11 4.007-10.686v-.719q0-4.418-1.849-7.912-1.849-3.493-5.035-5.446-3.185-1.952-6.987-1.952-6.576 0-10.172 4.315-3.596 4.213-3.596 10.994 0 6.884 3.493 11.2 3.596 4.213 10.275 4.213zm-59.941-38.942h11.097v9.247q1.644-4.726 5.343-7.603 3.699-2.877 8.425-2.877 3.288 0 4.521.616l-1.541 11.2q-.925-.616-4.007-.616-4.829 0-8.836 3.082-3.904 3.082-3.904 9.864v24.249h-11.097zm-36.102 48.189q-7.295 0-12.946-3.288-5.651-3.288-8.734-8.939-3.082-5.651-3.082-12.535 0-6.781 2.98-12.433 3.082-5.651 8.734-8.939 5.651-3.288 13.049-3.288 7.398 0 12.946 3.288 5.651 3.288 8.631 8.939 3.082 5.651 3.082 12.433 0 6.884-3.082 12.535-3.082 5.651-8.734 8.939-5.548 3.288-12.844 3.288zm.308-9.042q5.959 0 9.35-4.418 3.493-4.418 3.493-11.097 0-6.679-3.699-11.2-3.699-4.624-9.761-4.624-5.857 0-9.453 4.521-3.493 4.521-3.493 11.302 0 6.576 3.802 11.097 3.802 4.418 9.761 4.418zm-82.699-30.311h-7.603v-8.836h7.603V27.552q0-9.247 4.418-14.282 4.521-5.137 13.152-5.137 3.493 0 7.912 1.952l-2.158 10.48q-.719-.822-2.26-1.541-1.438-.822-3.185-.822-6.884 0-6.987 8.939v10.583h11.097v8.836h-11.097v38.325h-10.891zm33.702-37.195h10.994v75.521h-10.994zM60.093.99C59.459.356 58.597 0 57.701 0a3.38 3.38 0 0 0-2.391.99c-8.856 8.856-15.052 21.64-15.052 36.342 0 14.709 6.203 27.493 15.052 36.342.634.634 1.496.99 2.393.99a3.38 3.38 0 0 0 2.391-.99c8.847-8.846 15.052-21.629 15.052-36.342S68.945 9.841 60.093.99zm13.091 66.977a50.03 50.03 0 0 0 15.63-16.619c6.061-10.497 8.664-24.017 4.973-37.784a3.38 3.38 0 0 0-4.141-2.39c-4.126 1.105-8.088 2.744-11.784 4.853 2.682 6.79 4.044 13.948 4.044 21.306 0 14.533-5.315 25.129-8.723 30.635zm-30.966-.002c-3.416-5.518-8.722-16.112-8.722-30.633a57.7 57.7 0 0 1 4.045-21.307c-3.695-2.108-7.657-3.747-11.782-4.852a3.38 3.38 0 0 0-4.141 2.39c-3.69 13.767-1.088 27.288 4.973 37.784 3.68 6.373 8.964 12.197 15.627 16.617zm30.845 7.982c6.967-.631 13.502-2.807 19.122-6.053 9.824-5.671 18.255-15.41 21.708-28.29a3.38 3.38 0 0 0 .115-.876c0-1.596-1.106-2.935-2.594-3.291-3.257-.866-6.606-1.368-9.969-1.512a56.38 56.38 0 0 1-6.776 18.803c-3.063 5.304-9.561 14.551-21.607 21.218zM23.22 69.894a46.78 46.78 0 0 0 19.122 6.053c-12.038-6.663-18.545-15.914-21.607-21.218a56.38 56.38 0 0 1-6.776-18.803 46.61 46.61 0 0 0-9.969 1.512c-1.488.355-2.594 1.694-2.594 3.291a3.38 3.38 0 0 0 .115.876c3.453 12.88 11.884 22.619 21.708 28.29zM6.186 64.471A42.24 42.24 0 0 0 .99 68.89c-.634.634-.99 1.496-.99 2.393a3.38 3.38 0 0 0 .99 2.391c7.893 7.893 18.388 12.24 29.551 12.24a41.74 41.74 0 0 0 15.642-3.016c-9.238-.058-18.34-2.526-26.345-7.148A53.14 53.14 0 0 1 6.186 64.471zm108.229 4.419a42.2 42.2 0 0 0-5.196-4.419A53.15 53.15 0 0 1 95.566 75.75c-8.004 4.622-17.106 7.089-26.344 7.148a41.74 41.74 0 0 0 15.642 3.016c11.163 0 21.657-4.347 29.551-12.24a3.38 3.38 0 0 0 .99-2.391c0-.897-.357-1.758-.991-2.393z" fill="#ffbf3e"/></svg>